<?xml version="1.0" encoding="utf-8"?>
<!-- Generator: Adobe Illustrator 27.5.0, SVG Export Plug-In . SVG Version: 6.00 Build 0)  -->
<svg version="1.1" xmlns="http://www.w3.org/2000/svg" xmlns:xlink="http://www.w3.org/1999/xlink" x="0px" y="0px"
	 viewBox="0 0 4000 2000" style="enable-background:new 0 0 4000 2000;" xml:space="preserve">
<g id="BG">
	<rect style="fill:#CCEDFF;" width="4000" height="2000"/>
</g>
<g id="shadow">
	<rect x="530.955" y="1721.614" style="fill:#267FBF;" width="2933.579" height="6.509"/>
</g>
<g id="character">
	<g id="male_03_2_">
		<path style="fill:#FFA88F;" d="M2964.36,965.218c55.236-13.119,98.798-63.964,138.871-97.554l-44.734-78.065
			c-41.005,36.348-90.075,84.854-110.147,106.523C2908.552,937.42,2935.89,976.661,2964.36,965.218z"/>
		<path style="fill:#338C8C;" d="M3065.756,781.787c-34.578,17.697-66.992,47.426-93.515,75.109
			c34.167,11.294,47.03,75.98,37.793,88.5l80.371-54.284C3120.696,858.933,3132.92,765.627,3065.756,781.787z"/>
		<g id="male_03_3_">
			<g>
				<polygon style="fill:#FFA88F;" points="3276.772,1263.797 3260.778,1693.184 3210.18,1693.184 3179.106,1264.18 				"/>
				<polygon style="fill:#FFA88F;" points="3143.811,1252.366 3059.084,1691.723 3003.373,1691.723 3053.052,1252.738 				"/>
				<g>
					<g>
						<path style="fill:#267FBF;" d="M3175.677,1296.381l-17.836-213.864h127.895c5.142,32.668,2.521,114.309-2.936,213.864
							C3252.177,1305.2,3216.636,1305.49,3175.677,1296.381z"/>
					</g>
					<g>
						<path style="fill:#267FBF;" d="M3041.406,1296.381l19.649-211.473h133.608l-46.227,211.473
							C3109.942,1306.187,3074.75,1304.504,3041.406,1296.381z"/>
					</g>
				</g>
				<g>
					<path style="fill:#FFA88F;" d="M3261.435,1660.939c4.855,10.985,26.605,15.186,51.278,19.408
						c26.583-2.011,39.114,27.184,25.827,39.398c-64.321,0-131.36,0-131.36,0c-2.038-8.916-0.198-34.646,1.187-47.337
						c11.454,7.538,23.487,6.126,35.927,1.382C3235.126,1651.351,3259.519,1647.674,3261.435,1660.939z"/>
					<path style="fill:#154B73;" d="M3300.669,1677.596c0,0-34.56,4.274-36.085,29.056c-13.845,0-61.439,0-61.439,0v14.869h140.744
						c0,0,3.369-13.344-1.969-27.831S3302.558,1677.322,3300.669,1677.596z"/>
				</g>
				<g>
					<path style="fill:#FFA88F;" d="M2970.841,1677.449c15.898-3.713,32.841-9.35,36.806-18.322
						c2.009-13.913,33.378-8.439,23.762,15.097c13.048,4.976,19.36,4.36,31.375-3.546c1.452,13.311,3.383,40.299,1.245,49.651
						c0,0-43.774,0.001-95.379,0.001L2970.841,1677.449z"/>
					<path style="fill:#154B73;" d="M2996.669,1670.362c0,0,36.188,10.241,37.787,36.234c14.522,0,33.806,0,33.806,0v15.596
						l-126.226,0C2933.975,1696.118,2967.563,1666.021,2996.669,1670.362z"/>
					<path style="fill:#FFA88F;" d="M3005.86,1706.362h-57.362c0.51-7.66,8.934-20.951,32.51-20.766
						C3008.755,1685.813,3005.86,1706.362,3005.86,1706.362z"/>
				</g>
				<path style="fill:#FFA88F;" d="M3338.286,1706.362h-42.383c0.377-6.531,3.709-21.348,21.129-21.19
					C3337.532,1685.357,3338.286,1706.362,3338.286,1706.362z"/>
			</g>
			<path style="fill:#FFA88F;" d="M3376.013,945.867c-56.764,0.971-111.562-37.499-158.706-60.117l24.004-86.712
				c48.73,25.059,108.286,59.899,133.1,75.921C3423.197,905.113,3406.43,949.903,3376.013,945.867z"/>
			<path style="fill:#338C8C;" d="M3232.342,793.268c37.884,8.58,76.651,29.354,109.205,49.605
				c-30.304,19.405-26.744,85.261-14.695,95.104l-91.312-32.685C3198.222,881.618,3163.268,794.247,3232.342,793.268z"/>
			<path style="fill:#FFA88F;" d="M3331.344,875.368c-7.338-25.106-21.644-96.872-27.135-166.221l27.751-5.516
				c21.305,42.94,59.381,113.005,69.502,173.196c5.529,32.879,9.153,66.639-21.56,68.331
				C3360.812,946.209,3345.5,925.851,3331.344,875.368z"/>
		</g>
		<g>
			<path style="fill:#338C8C;" d="M3201.86,786.35c21.83,2.596,39.766,8.877,49.934,17.579
				c15.648,47.835,26.016,98.484,32.433,151.158l0.246,2.024l1.432,12.933c5.677,52.822,7.553,107.618,7.06,163.648
				c-10.835,7.352-32.603,12.982-59.235,16.575C3237.721,911.817,3210.534,811.925,3201.86,786.35z"/>
			<path style="fill:#338C8C;" d="M3059.267,980.263c0.493-4.937,0.987-9.873,1.481-14.81c4.985-48.773,10.514-96.461,17.87-155.749
				c12.276-6.696,25.213-11.883,38.296-15.739c11.522,35.42,37.09,139.787,33.413,360.75c-41.769-0.753-81.946-5.917-104.883-16.333
				C3050.381,1076.131,3054.677,1027.111,3059.267,980.263z"/>
			<path style="fill:#FFFFFF;" d="M3116.914,793.965c29.538-8.706,59.821-10.604,84.946-7.615
				c8.674,25.575,35.861,125.466,31.87,363.917c-25.157,3.394-54.653,4.967-83.403,4.448
				C3154.004,933.752,3128.436,829.385,3116.914,793.965z"/>
			<path style="fill:#267FBF;" d="M3070.196,690.029c0,0-20.872,50.77,0,63.036c36.493,21.445,102.39-130.552,102.39-130.552
				L3070.196,690.029z"/>
			<path style="fill:#59330B;" d="M3211.262,643.83c-5.542-13.706-20.334-62.538-85.916-57.582
				c-64.079,4.843-99.692,102.48-14.92,149.85C3178.834,774.323,3236.17,692.098,3211.262,643.83z"/>
			<g>
				<path style="fill:#FFA88F;" d="M3203.578,803.177l-2.273-9.719l-8.19-34.81l-10.792-46.011l-58.078,1.565l-1.969,96.764
					C3129.013,846.041,3217.102,831.873,3203.578,803.177z"/>
				<path style="opacity:0.5;fill:#0D0D0D;" d="M3140.051,749.927c0,0,39.651,36.51,61.254,43.531l-8.19-34.81L3140.051,749.927z"/>
			</g>
			<g>
				<g>
					<path style="fill:#FFA88F;" d="M3219.596,661.45c19.75,28.167,26.555,74.711-6.319,98.061
						c-32.874,23.35-82.453,7.526-109.68-30.807c-27.227-38.333-22.65-88.337,10.225-111.687S3200.746,611.906,3219.596,661.45z"/>
					<path style="fill:#733602;" d="M3192.846,702.291c0.11,0,0.222-0.029,0.323-0.089c0.308-0.183,7.544-4.554,6.747-10.813
						c-0.608-4.765-5.957-4.138-9.498-3.722c-1.092,0.128-2.316,0.271-2.819,0.153l-4.907-6.574
						c-0.209-0.28-0.609-0.338-0.888-0.129c-0.281,0.21-0.339,0.608-0.129,0.888l5.116,6.853l0.142,0.068
						c0.721,0.344,1.944,0.201,3.634,0.003c4.184-0.488,7.675-0.63,8.091,2.623c0.692,5.429-6.068,9.519-6.136,9.56
						c-0.301,0.179-0.4,0.568-0.222,0.87C3192.418,702.18,3192.63,702.291,3192.846,702.291z"/>
					<path style="fill:#522601;" d="M3194.692,668.999l1.784-1.236c-2.187-3.16-2.533-6.413-1.38-7.212
						c1.152-0.797,4.077,0.671,6.264,3.829l1.784-1.236c-2.883-4.163-6.872-6.047-9.285-4.379
						C3191.451,660.435,3191.808,664.835,3194.692,668.999z"/>
					<path style="fill:#522601;" d="M3141.238,698.372l1.784-1.235c-2.187-3.16-2.533-6.413-1.38-7.212
						c1.151-0.797,4.077,0.671,6.264,3.829l1.784-1.235c-2.883-4.165-6.876-6.049-9.285-4.378
						C3137.997,689.809,3138.354,694.209,3141.238,698.372z"/>
					<path style="fill:#733602;" d="M3173.673,734.289c21.547,0,35.779-17.305,35.962-17.532c0.22-0.274,0.176-0.672-0.096-0.892
						c-0.273-0.222-0.672-0.178-0.892,0.096c-0.232,0.288-23.493,28.532-55.396,11.695c-0.312-0.162-0.693-0.045-0.858,0.265
						c-0.164,0.31-0.044,0.694,0.265,0.858C3160.193,732.754,3167.257,734.289,3173.673,734.289z"/>
				</g>
			</g>
			<g>
				<path style="fill:#59330B;" d="M3201.305,631.949c0,0-14.294-13.244-56.95,13.988c-61.264,39.111-36.981,87.758-36.981,87.758
					s-57.256-64.574-3.058-118.771C3158.513,560.727,3197.866,626.159,3201.305,631.949z"/>
				<g>
					<path style="fill:#267FBF;" d="M3070.389,700.435l127.846-84.303c0,0-39.481-62.462-105.138-23.216
						C3024.627,633.791,3070.389,700.435,3070.389,700.435z M3136.292,615.082c18.265-12.638,30.755,5.035,30.755,5.035
						l-37.37,26.756C3129.676,646.873,3114.374,630.188,3136.292,615.082z"/>
				</g>
			</g>
			<circle style="fill:#FFA88F;" cx="3098.442" cy="716.877" r="15.65"/>
		</g>
		<g>
			<path style="opacity:0.25;" d="M3024.403,847.759c0,0,36.246,1.648,48.877,13.729c30.754-15.926,146.629-36.245,188.367-13.18
				c24.164-11.533,55.429-19.994,55.429-19.994l-1.61-21.194L3024.403,847.759z"/>
			
				<rect x="2970.952" y="505.307" transform="matrix(-0.9976 0.069 -0.069 -0.9976 6315.8149 1127.3984)" style="fill:#FFFFFF;" width="334.964" height="334.964"/>
			<g>
				<path style="fill:#444444;" d="M3066.776,659.886l8.087,99.126c0.9,11.035,135.668,0.041,134.768-10.994l-8.086-99.126
					L3066.776,659.886z M3120.565,693.165c-0.75-9.196,6.066-17.221,15.261-17.972c9.196-0.75,17.284,6.059,18.034,15.255
					c0.548,6.722-3.034,12.888-8.594,15.959l2.297,28.158c0.305,3.742-2.485,7.098-6.29,7.409c-3.742,0.305-7.04-2.554-7.345-6.296
					l-2.292-28.095C3125.591,705.459,3121.119,699.951,3120.565,693.165z"/>
				<path style="fill:#444444;" d="M3077.997,651.858l13.642-1.113l-0.544-6.674c-1.887-23.128,15.394-43.478,38.517-45.365
					c23.128-1.887,43.478,15.394,45.365,38.522l0.545,6.674l13.642-1.113l-0.544-6.674c-2.5-30.65-29.47-53.551-60.12-51.051
					c-30.646,2.5-53.547,29.469-51.047,60.12L3077.997,651.858z"/>
			</g>
		</g>
		<g>
			<path style="fill:#FFA88F;" d="M2927.76,878.094c2.975-25.987,17.63-97.683,39.47-163.732l27.718,5.681
				c2.979,47.842,10.894,127.19-3.127,186.595c-7.658,32.449-17.415,64.971-46.379,54.616
				C2927.439,954.818,2921.224,930.114,2927.76,878.094z"/>
			<path style="fill:#FFA88F;" d="M2988.223,697.32c-0.334,9.478,10.432,9.312,7,26.801c-3.166,16.136-27.216,7.451-29.95-5.611
				c0,0-7.244-21.085-9.502-35.078c-2.249-13.996,10.289-48.83,11.617-47.777c6.705,1.065,1.977,32.007,1.977,32.007
				s11.936-17.833,18.508-22.092c7.979,2.412-11.457,28.968-11.457,28.968c4.015-4.547,9.146-7.408,13.782-7.846
				c6.657-0.628,12.543,2.924,14.754,6.757c0.91,3.515-11.275,2.993-12.75,1.116l-7.426,6.884
				c5.187-2.456,18.157-0.158,22.182,9.732c-0.839,6.531-12.611-1.99-12.611-1.99S2988.434,691.34,2988.223,697.32z"/>
		</g>
		<path style="fill:#FFA88F;" d="M3305.204,690.304c4.091,8.556-5.846,12.702,4.283,27.367c9.345,13.53,27.927-4.036,25.219-17.103
			c0,0-1.778-22.224-5.294-35.954c-3.527-13.73-28.93-40.661-29.728-39.165c-5.721,3.654,10.967,30.135,10.967,30.135
			s-18.063-11.584-25.79-12.865c-6.353,5.397,22.071,21.984,22.071,21.984c-5.497-2.566-11.344-3.14-15.769-1.69
			c-6.354,2.082-10.332,7.689-10.83,12.086c0.569,3.586,11.532-1.758,12.135-4.068l9.557,3.347
			c-5.736-0.181-16.71,7.105-16.451,17.78c3.376,5.653,10.767-6.86,10.767-6.86S3302.623,684.906,3305.204,690.304z"/>
	</g>
	<g id="female_02_1_">
		<g>
			<path style="fill:#48C6C6;" d="M2632.749,992.575l43.237-157.378c-11.682-38.157-185.427-37.408-198.241,0l2.282,144.852
				C2511.864,977.853,2573.054,979.014,2632.749,992.575z"/>
			<path style="fill:#154B73;" d="M2480.027,980.049c-19.273,44.539-27.051,82.373-27.413,106.597l213.091-13.7
				c-2.32-17.378-10.711-55.292-32.155-84.374C2586.275,972.162,2535.096,969.337,2480.027,980.049z"/>
		</g>
		<g id="lady_boy_1_">
			<path style="fill:#FE931F;" d="M2676.026,779.482c4.215,0.001,8.368-1.129,12.088-3.335c11.28-6.688,15.016-21.307,8.328-32.587
				c-5.731-9.664-17.587-14.023-28.194-10.364c-1.271,0.438-1.946,1.824-1.507,3.095c0.438,1.271,1.826,1.945,3.095,1.507
				c8.433-2.908,17.86,0.559,22.418,8.244c5.319,8.971,2.348,20.596-6.622,25.916c-4.345,2.576-9.432,3.307-14.329,2.056
				c-4.894-1.251-9.009-4.333-11.586-8.678c-4.014-6.771-3.387-15.43,1.56-21.547c0.846-1.045,0.684-2.578-0.362-3.424
				c-1.046-0.846-2.578-0.684-3.423,0.362c-6.222,7.691-7.011,18.579-1.963,27.092c3.24,5.465,8.414,9.341,14.568,10.913
				C2672.062,779.235,2674.052,779.482,2676.026,779.482z"/>
			<g>
				<path style="fill:#FFA88F;" d="M2541.367,1095.508l7.206,97.863l10.76,145.579c-16.846,53.07-21.715,108.185-21.325,161.158
					c0.382,59.98,8.994,117.224,12.894,165.636l35.297-0.317l37.354-264.74l20.4-146.211l20.645-147.672
					C2671.804,1028.025,2548.622,1016.681,2541.367,1095.508z"/>
				<path style="fill:#154B73;" d="M2618.643,1122.903c-27.293-1.351-54.319,1.998-80.715,8.392
					c-5.382-54.185,11.952-83.238,32.737-99.834c25.759-20.568,71.69-13.632,89.365,22.136c10.056,20.351,5.676,53.763,1.445,75.405
					C2660.779,1128.828,2633.676,1123.647,2618.643,1122.903z"/>
				<path style="fill:#F58160;" d="M2538.008,1500.107l85.545-99.421l20.4-146.211l-95.38-61.104l10.76,145.579
					C2542.487,1392.019,2537.618,1447.135,2538.008,1500.107z"/>
				<g>
					<path style="fill:#0E324D;" d="M2626.851,1721.563c-0.962-8.135-25.7-17.152-25.7-17.152l-10.136-69.792v-1.875l-7.218,0.027
						l-15.508,0.059l-21.056,0.08c-9.343,4.58-9.009,15.733-7.321,27.806l37.043,60.846H2626.851z"/>
					<polygon style="fill:#0E324D;" points="2546.378,1721.563 2568.198,1657.027 2539.852,1660.533 2539.897,1721.563 					"/>
				</g>
				<path style="fill:#FFFFFF;" d="M2531.323,1108.179l0.732,25.627c0,0,39.54-13.912,72.489-11.715
					c32.949,2.197,59.322,10.172,59.322,10.172l1.4-17.849C2665.267,1114.414,2608.92,1086.766,2531.323,1108.179z"/>
			</g>
			<g>
				<g>
					<path style="fill:#FFA88F;" d="M2575.111,1077.265c0,0,136.894,151.956,136.894,188.313
						c0,36.357-210.153,198.182-210.153,198.182l-26.601-23.081c43.875-76.254,87.313-147.556,145.45-186.679l-132.711-95.708
						C2449.702,1114.087,2518.171,1026.634,2575.111,1077.265z"/>
					<path style="fill:#154B73;" d="M2488.922,1160.305c-28.43-27.305-37.656-54.086-36.152-75.889
						c2.269-32.885,31.382-54.263,76.741-50.862c18.677,1.4,42.465,28.4,50.317,48.997
						C2540.248,1090.884,2506.656,1123.348,2488.922,1160.305z"/>
				</g>
			</g>
			<path style="fill:#48C6C6;" d="M2488.853,897.307c0,0-77.314-61.059-112.151-96.728c-18.703-19.149-3.089-57.803,35.505-41.224
				c59.972,25.763,113.794,64.367,113.794,64.367C2566.491,855.432,2523.948,914.47,2488.853,897.307z"/>
			<polygon style="fill:#FFA88F;" points="2418.726,655.161 2435.152,620.707 2452.78,621.909 2447.972,663.574 			"/>
			<path style="fill:#48C6C6;" d="M2369.527,773.419c-3.786,28.358,28.748,51.774,45.206,22.498
				c16.12-18.215,21.771-76.173,37.065-151.112l-24.416-7.399C2394.639,693.278,2369.527,773.419,2369.527,773.419z"/>
			<g>
				<path style="fill:#FFA88F;" d="M2542.425,737.905c2.538,3.49,5.604,7.138,9.042,10.84l0.053,0.053
					c24.112,25.592,65.662,51.079,104.844,30.879c24.959-13.273,35.909-68.717,10.209-98.793
					c-7.932-21.257-20.93-46.411-34.943-56.193c0-0.053,0-0.053,0-0.053c-17.925-12.532-39.712-15.388-62.344-7.509
					C2531.215,630.349,2509.798,693.223,2542.425,737.905z"/>
				<path style="fill:#FFA88F;" d="M2539.366,819.545c6.004,15.204,74.082,28.505,74.082,11.784l19.534-98.039l-59.14-17.588
					L2539.366,819.545z"/>
				<path style="fill:#48C6C6;" d="M2620.375,799.781c0,0-16.623,7.081-39.409,0c-22.786-7.081-29.111-16.382-29.111-16.382
					s-8.182-2.041-13.198,9.764c-5.015,11.805-14.518,16.491-16.777,24.957c-2.26,8.466,73.108,37.094,93.557,28.914
					c20.449-8.179-1.224-26.164,4.938-34.407C2626.537,804.385,2620.375,799.781,2620.375,799.781z"/>
				<path style="fill:#B56148;" d="M2641.676,718.616c0.193,0,0.388-0.054,0.562-0.165c4.297-2.763,4.417-7.559,3.878-9.709
					l-0.095-0.382l-23.323-16.013c-0.475-0.325-1.121-0.206-1.447,0.269c-0.325,0.474-0.205,1.121,0.269,1.447l22.647,15.548
					c0.181,1.171,0.429,4.85-3.054,7.09c-0.483,0.311-0.624,0.955-0.313,1.438C2640.999,718.448,2641.335,718.616,2641.676,718.616z
					"/>
				<path style="fill:#F13005;" d="M2661.08,727.163l-50.763,15.933c0,0,9.587,21.26,32.978,17.045
					C2668.821,755.54,2661.08,727.163,2661.08,727.163z"/>
				<path style="fill:#0D0D0D;" d="M2585.7,702.696c0.234,0,0.469-0.076,0.667-0.232c11.547-9.126,20.504-6.519,20.594-6.491
					c0.57,0.175,1.171-0.142,1.348-0.709c0.176-0.566-0.137-1.168-0.702-1.347c-0.404-0.13-10.073-3.024-22.576,6.855
					c-0.467,0.369-0.546,1.047-0.178,1.514C2585.066,702.556,2585.382,702.696,2585.7,702.696z"/>
				<path style="fill:#0D0D0D;" d="M2631.544,683.294c0.399,0,0.781-0.221,0.969-0.603c0.157-0.315,3.868-7.437,17.478-8.171
					c0.594-0.032,1.051-0.54,1.018-1.134c-0.032-0.595-0.546-1.065-1.134-1.018c-14.977,0.807-19.13,9.028-19.3,9.378
					c-0.26,0.535-0.035,1.18,0.5,1.44C2631.226,683.26,2631.386,683.294,2631.544,683.294z"/>
				
					<ellipse transform="matrix(0.7071 -0.7071 0.7071 0.7071 234.524 2020.5177)" style="fill:#FFA88F;" cx="2556.243" cy="727.163" rx="15.514" ry="15.514"/>
				<path style="fill:#FE931F;" d="M2542.934,778.42c0.235,0,0.47-0.003,0.707-0.01c6.35-0.184,12.248-2.829,16.608-7.45
					c7.711-8.171,8.633-20.769,2.194-29.957c-0.771-1.1-2.287-1.369-3.391-0.596c-1.101,0.771-1.368,2.29-0.596,3.391
					c5.119,7.304,4.384,17.322-1.749,23.82c-3.467,3.674-8.157,5.779-13.207,5.925c-5.04,0.161-9.854-1.683-13.529-5.149
					c-3.675-3.468-5.779-8.158-5.926-13.208c-0.146-5.05,1.683-9.854,5.15-13.529c5.404-5.725,13.9-7.508,21.144-4.437
					c1.235,0.525,2.667-0.051,3.191-1.291c0.525-1.238-0.053-2.667-1.291-3.191c-9.11-3.863-19.792-1.62-26.585,5.577
					c-4.36,4.62-6.66,10.662-6.475,17.012c0.184,6.35,2.829,12.248,7.45,16.608C2531.078,776.133,2536.844,778.42,2542.934,778.42z"
					/>
			</g>
			<g>
				<path style="fill:#48C6C6;" d="M2799.599,894.3c0,0.02-0.01,0.04-0.02,0.05c-2.52,5.97-7.57,11.12-15.51,14.01
					c-4.52,1.67-9.97,2.59-16.42,2.51c-13.36-0.16-26.72-1.16-39.52-2.66c-27.33-3.2-52.1-8.66-68.88-12.93
					c-13.76-3.5-22.14-6.2-22.14-6.2c-37.09-10.28-36.69-49.16-17.8-67.08c1.44-1.36,2.99-2.6,4.63-3.7
					c5.62-3.76,12.38-5.84,19.97-5.38c0,0,14.85,4.18,35.63,10.45c11.36,3.42,24.49,7.46,37.94,11.79
					c9.48,3.05,19.11,6.23,28.4,9.44c14.37,4.96,27.91,9.97,38.72,14.58c10.29,4.39,16.36,14.22,16.86,24.15
					C2801.659,887.07,2801.059,890.82,2799.599,894.3z"/>
				<path style="fill:#48C6C6;" d="M2801.459,883.33c-0.41,4.36-1.02,8.05-1.86,10.97c0,0.02-0.01,0.04-0.02,0.05
					c-0.21,0.75-0.44,1.45-0.68,2.09c-2.11,7.78-7.83,11.41-14.83,11.92c-13.1,0.97-30.63-9.03-37.18-23.46
					c-0.3-13-0.72-26.44-1.01-40.3c-0.08-3.94-0.15-7.92-0.21-11.93c-0.02-1.09-0.03-2.18-0.04-3.28
					c-0.33-27.39,0.15-56.24,3.19-86.18c1.18-11.26,2.68-22.65,4.66-34.16l31.72,0.61c2,12.31,3.95,25.02,5.74,37.68
					C2798.669,801.51,2804.079,855.76,2801.459,883.33z"/>
				<path style="fill:#FFA88F;" d="M2748.815,743.215c12.323,1.214,32.173,3.162,42.123,4.129
					c-1.788-12.66-3.742-25.379-5.74-37.683l-31.722-0.613C2751.501,720.562,2749.998,731.955,2748.815,743.215z"/>
			</g>
			<g>
				<path style="fill:#0E324D;" d="M2467.629,1541.733c5.625-5.955-3.321-30.719-3.321-30.719l47.051-52.535l1.439-1.202
					l-4.65-5.521l-9.99-11.861l-13.564-16.105c-9.506-4.232-17.85,3.177-26.031,12.215l-22.931,67.444L2467.629,1541.733z"/>
				<polygon style="fill:#0E324D;" points="2416.022,1479.987 2479.533,1455.343 2458.665,1435.841 2411.866,1475.015 				"/>
			</g>
			<path style="opacity:0.2;" d="M2679.539,823.37c11.36,3.42,24.49,7.46,37.94,11.79l-43.21,3.82c0,0-25-12.84-54.96-16.98
				c-3.88-0.53-7.842-0.757-11.83-1.12c-34.39-3.133-101.609,1.305-102.54,3.88c-1.892-6.348-13.064-13.025-27.58-19.82
				l146.58,13.36L2679.539,823.37z"/>
			<path style="fill:#399E9E;" d="M2763.929,831.06l-18.26,1.61c-0.02-1.09-0.03-2.18-0.04-3.28L2763.929,831.06z"/>
			<path style="fill:#FFFFFF;" d="M2491.633,1161.982c0,0,21.224-39.922,34.363-50.534c13.139-10.612,40.933-30.321,55.588-28.805
				c-4.363-14.466-12.317-16.617-15.16-16.171c0,0-27.289,2.527-55.083,28.299s-34.363,55.082-34.363,55.082
				C2480.431,1157.866,2485.598,1161.127,2491.633,1161.982z"/>
		</g>
		<g>
			
				<rect x="2440.917" y="484.933" transform="matrix(0.9976 0.069 -0.069 0.9976 51.24 -178.4449)" style="fill:#FFFFFF;" width="334.964" height="334.964"/>
			<g>
				<path style="fill:#444444;" d="M2545.288,628.517l-8.086,99.126c-0.9,11.035,133.868,22.029,134.768,10.994l8.087-99.126
					L2545.288,628.517z M2615.196,687.21l-2.292,28.095c-0.305,3.742-3.603,6.602-7.345,6.296c-3.804-0.31-6.595-3.666-6.29-7.409
					l2.297-28.158c-5.56-3.071-9.142-9.237-8.594-15.959c0.75-9.197,8.839-16.006,18.034-15.256
					c9.196,0.75,16.012,8.775,15.261,17.972C2625.714,679.576,2621.242,685.085,2615.196,687.21z"/>
				<path style="fill:#444444;" d="M2668.837,631.484l-13.642-1.113l0.544-6.674c1.887-23.128-15.394-43.478-38.517-45.365
					c-23.128-1.887-43.478,15.394-45.365,38.522l-0.544,6.674l-13.642-1.113l0.544-6.674c2.5-30.65,29.47-53.551,60.12-51.051
					c30.646,2.5,53.547,29.469,51.046,60.12L2668.837,631.484z"/>
			</g>
		</g>
		<path style="fill:#FFA88F;" d="M2785.323,715.541c0,0,8.017-27.239,7.756-36.22c-2.25-12.163-11.792-19.286-11.792-19.286
			s-11.244,4.637-22.071,11.152c1.011,2.868,14.126-1.446,14.126-1.446s-9.43,9.931-15.555,15.616
			c1.277,3.755,17.107-6.031,17.107-6.031s-11.755,11.295-16.396,16.453c4.79,4.184,14.532-5.693,14.532-5.693
			s-4.281,18.842-2.833,26.471C2772.643,729.449,2782.051,724.54,2785.323,715.541z"/>
		<g>
			<path style="fill:#FFA88F;" d="M2433.484,623.871c0,0-7.053-24.336-6.792-33.317c7.115-15.863,15.074-30.266,19.976-41.077
				c3.563,1.084-2.632,27.336-2.632,27.336s13.373,10.653,19.498,16.338c-1.277,3.755-18.754-4.369-18.754-4.369
				s11.853,13.071,16.495,18.229c-4.79,4.184-14.532-5.693-14.532-5.693s0.229,13.893-1.219,21.521
				C2443.076,635.732,2436.756,632.87,2433.484,623.871z"/>
			<path style="fill:#FFA88F;" d="M2440.961,573.15l23.936-1.121c0,0-1.363,7.311-19.868,7.221
				C2434.995,578.916,2440.961,573.15,2440.961,573.15z"/>
		</g>
	</g>
	<g id="male_02_1_">
		<g>
			<path style="fill:#267FBF;" d="M2002.714,768.59c-31.299-20.507-82.959-8.319-143.162,16.085
				c-60.625,9.745-86.973,46.977-70.959,68.769c0.222,0.204,0.443,0.41,0.674,0.607c42.014,35.73,146.573,14.819,188.064-1.954
				C2001.043,842.51,2030.186,787.605,2002.714,768.59z"/>
		</g>
		<g>
			<path style="fill:#267FBF;" d="M2083.272,776.889c17.535-33.056,68.671-47.283,133.181-54.927
				c57.812-20.69,98.846-0.773,95.322,26.04c-0.096,0.286-0.191,0.573-0.298,0.857c-19.583,51.558-121.27,83.647-165.708,88.954
				C2120.373,840.846,2068.371,806.793,2083.272,776.889z"/>
		</g>
		<path style="fill:#267FBF;" d="M1993.976,814.129c-39.461-15.134-42.567-58.038-13.071-73.636
			c29.496-15.599,139.862-23.933,132.204,29.978C2105.452,824.382,2018.335,823.471,1993.976,814.129z"/>
		<path style="fill:#154B73;" d="M2167.773,1056.784c-8.553,237.549-27.626,412.162-46.836,641.137
			c-35.892,4.603-60.272,2.742-57.252-16.567c-5.673-185.932-12.823-422.771-32.174-628.245L2167.773,1056.784z"/>
		<path style="fill:#154B73;" d="M2072.885,1073.437c-37.847,234.671-89.64,414.718-137.002,639.563
			c-36.186,0.132-60.149-3.784-54.766-22.572c11.179-209.672,43.957-424.363,50.15-630.654L2072.885,1073.437z"/>
		<path style="fill:#FFFFFF;" d="M1959.482,789.889c0,0,48.094-44.242,156.37-32.472c24.482,24.482,45.166,259.482,49.805,352.128
			c-55.315,38.838-227.68,23.058-235.919,0.696L1959.482,789.889z"/>
		<path style="fill:#267FBF;" d="M2107.897,1158.438c33.097-3.203,56.317-7.423,75.583-20.951
			c4.793-170.769-43.146-355.588-67.626-380.07c-15.365-16.925-32.519-14.186-32.519,0.702
			C2120.045,866.139,2132.266,1045.302,2107.897,1158.438z"/>
		<path style="fill:#267FBF;" d="M2028.029,792.883c-19.872-32.38-85.967-9.513-89.314,35.426
			c6.235,107.806-13.457,228.342-28.509,308.056c18.255,15.346,86.573,22.648,113.678,22.073
			C2040.668,1070.556,2058.757,885.274,2028.029,792.883z"/>
		<g>
			<g>
				<path style="fill:#FFFFFF;" d="M2146.377,1680.942l-14.586-4.46c-9.627-18.94-50.689-16.594-44.97,6.456
					c-16.112,2.4-24.587-5.626-24.587-5.626c-7.181,13.775-7.655,28.462-4.817,43.599h86.996L2146.377,1680.942z"/>
			</g>
			<path style="fill:#FFFFFF;" d="M2100.429,1720.911c-0.003-0.198-0.015-0.393-0.015-0.591c0-22.161,17.966-40.127,40.127-40.127
				s40.127,17.965,40.127,40.127c0,0.198-0.012,0.393-0.015,0.591H2100.429z"/>
			<rect x="2053.903" y="1712.245" style="fill:#FFFFFF;" width="63.368" height="9.053"/>
		</g>
		<g>
			<g>
				<path style="fill:#FFFFFF;" d="M1859.837,1681.23l14.488-4.43c9.563-18.813,50.349-16.483,44.668,6.413
					c16.004,2.384,24.422-5.588,24.422-5.588c7.133,13.683,7.603,28.271,4.785,43.306h-86.413L1859.837,1681.23z"/>
			</g>
			<path style="fill:#FFFFFF;" d="M1905.476,1720.932c0.003-0.196,0.015-0.39,0.015-0.587c0-22.013-17.845-39.858-39.858-39.858
				s-39.858,17.845-39.858,39.858c0,0.197,0.012,0.391,0.015,0.587H1905.476z"/>
			<rect x="1888.194" y="1712.434" style="fill:#FFFFFF;" width="62.943" height="8.992"/>
		</g>
		<g>
			<path style="fill:#267FBF;" d="M2086.383,733.409c8.63,2.56,19.637,8.436,26.894,22.016c15.219,32.815,1.3,80.234-5.166,116.274
				c-6.23-49.654-14.958-75.237-22.391-98.464C2087.564,763.528,2089.652,753.761,2086.383,733.409z"/>
		</g>
		<path style="fill:#267FBF;" d="M2018.052,774.383c8.964,12.48,22.328,34.803,11.436,113.875
			c-14.713-30.073-110.727-108.867-48.583-147.765C1973.461,761.401,2009.088,761.903,2018.052,774.383z"/>
		<path style="opacity:0.2;" d="M1877.375,811.368l69.698,5.474c0,0,109.065-42.45,188.741-13.715
			c9.796-15.674,66.483-38.128,66.483-38.128l-5.093-38.935l-323.929,54.859L1877.375,811.368z"/>
		<path style="opacity:0.5;fill:#0D0D0D;" d="M2005.978,760.58c14.967-3.936,53.322-24.544,65.798-49.087l-61.858,12.099
			L2005.978,760.58z"/>
		<g>
			<path style="fill:#59330B;" d="M1945.468,615.423c-1.362,1.574-5.655,56.558,30.354,58.359
				C2011.831,675.583,1964.633,593.27,1945.468,615.423z"/>
			<path style="fill:#FF9475;" d="M1956.53,654.816c-7.909,37.019,27.002,88.139,68.147,84.394
				c41.145-3.745,75.714-50.086,71.347-98.064c-4.367-47.978-41.262-83.836-82.407-80.091
				C1972.472,564.8,1938.172,603.698,1956.53,654.816z"/>
			<path style="fill:#59330B;" d="M2068.536,594.855c0,0-20.359,23.922-76.352,31.252c-51.095,6.689-83.873-12.952-82.241-44.104
				c11.993,10.767,33.445-6.498,49.444-19.212c13.246-10.526,89.04-50.911,114.613,12.095
				c46.088,13.168,36.089,57.243,25.399,76.818C2078.774,635.82,2068.536,594.855,2068.536,594.855z"/>
			<path style="fill:#59330B;" d="M2074.737,613.637c0,0,13.466,28.38,11.537,42.973c8.886-13.204,17.334-14.209,17.398-14.368
				C2103.737,642.084,2103.773,606.762,2074.737,613.637z"/>
			<path style="fill:#733602;" d="M2004.553,677.201c-2.909,0-7.286-0.642-9.58-4.13c-2.704-4.113,1.877-7.19,4.909-9.228
				c0.935-0.628,1.984-1.333,2.296-1.761l-0.564-8.387c-0.024-0.358,0.247-0.668,0.605-0.692c0.359-0.025,0.668,0.247,0.692,0.605
				l0.588,8.742l-0.065,0.147c-0.333,0.75-1.379,1.454-2.827,2.426c-3.58,2.406-6.394,4.625-4.547,7.433
				c3.089,4.696,11.067,3.363,11.147,3.349c0.357-0.061,0.691,0.175,0.753,0.529c0.062,0.353-0.175,0.691-0.529,0.752
				C2007.303,677.008,2006.149,677.201,2004.553,677.201z"/>
			<path style="fill:#522601;" d="M1981.678,649.076c0.453,4.391-1.031,8.141-3.315,8.376c-2.283,0.235-4.501-3.133-4.953-7.524
				c-0.453-4.391,1.031-8.141,3.315-8.376C1979.008,641.317,1981.225,644.685,1981.678,649.076z"/>
			
				<ellipse transform="matrix(0.9947 -0.1025 0.1025 0.9947 -54.9373 212.536)" style="fill:#522601;" cx="2040.236" cy="640.738" rx="4.156" ry="7.992"/>
			<path style="fill:#733602;" d="M2013.2,703.082c-4.561,0-7.546-0.526-7.651-0.546c-0.353-0.066-0.585-0.406-0.519-0.759
				c0.066-0.353,0.404-0.589,0.759-0.52c0.369,0.069,37.299,6.538,50.9-27.826c0.133-0.335,0.511-0.498,0.844-0.366
				c0.334,0.133,0.498,0.51,0.365,0.844C2047.773,699.49,2025.114,703.082,2013.2,703.082z"/>
			<path style="fill:#FF9475;" d="M2082.683,662.341c2.756,7.371,10.966,11.113,18.337,8.357
				c7.371-2.756,11.113-10.966,8.357-18.337s-10.966-11.113-18.337-8.357C2083.669,646.76,2079.927,654.97,2082.683,662.341z"/>
		</g>
		<g>
			
				<rect x="1852.545" y="461.616" transform="matrix(0.99 -0.1413 0.1413 0.99 -68.1734 291.1822)" style="fill:#FFFFFF;" width="328.214" height="328.214"/>
			<g>
				<path style="fill:#444444;" d="M1951.282,615.765l12.577,96.636c1.4,10.758,132.783-6.341,131.383-17.099l-12.577-96.636
					L1951.282,615.765z M2030.298,657.667l3.564,27.389c0.475,3.648-2.098,7.064-5.747,7.539c-3.709,0.483-7.071-2.161-7.545-5.809
					l-3.573-27.451c-5.957-1.803-10.654-6.976-11.507-13.53c-1.167-8.965,5.187-17.148,14.152-18.315
					c8.965-1.167,17.141,5.125,18.307,14.091C2038.811,648.197,2035.656,654.392,2030.298,657.667z"/>
				<path style="fill:#444444;" d="M2070.268,593.275l-13.299,1.731l-0.847-6.507c-2.934-22.547-23.664-38.503-46.207-35.569
					c-22.547,2.934-38.502,23.664-35.568,46.211l0.847,6.507l-13.299,1.731l-0.847-6.507c-3.889-29.88,17.256-57.353,47.137-61.242
					c29.876-3.888,57.348,17.257,61.237,47.137L2070.268,593.275z"/>
			</g>
		</g>
		<path style="fill:#FFA88F;" d="M1864.653,633.17c-0.334,9.478,10.432,9.312,7,26.801c-3.166,16.137-27.216,7.451-29.95-5.611
			c0,0-7.244-21.085-9.502-35.078c-2.249-13.996,10.288-48.83,11.617-47.777c6.705,1.065,1.977,32.007,1.977,32.007
			s11.936-17.833,18.508-22.092c7.979,2.412-11.458,28.968-11.458,28.968c4.015-4.547,9.146-7.408,13.782-7.846
			c6.657-0.628,12.543,2.924,14.754,6.757c0.91,3.515-11.275,2.993-12.75,1.116l-7.426,6.884c5.187-2.456,18.157-0.158,22.182,9.732
			c-0.839,6.531-12.61-1.99-12.61-1.99S1864.864,627.19,1864.653,633.17z"/>
		<path style="fill:#267FBF;" d="M1852.611,777.876c10.894-40.229,23.941-90.57,25.464-118.633
			c-3.039-11.167-34.531-22.702-42.398-9.238c0,0-89.195,172.255-45.753,204.089c30.205,10.563,56.218-10.71,62.809-76.284
			C1852.693,777.833,1852.652,777.854,1852.611,777.876z"/>
		<path style="fill:#FFA88F;" d="M2155.897,579.489c1.806,9.31-8.855,10.822-2.742,27.564c5.639,15.447,28.044,3.123,28.711-10.206
			c0,0,3.873-21.956,3.925-36.129c0.042-14.175-17.765-46.633-18.914-45.386c-6.457,2.096,3.03,31.925,3.03,31.925
			s-14.567-15.757-21.722-18.941c-7.507,3.624,15.828,26.831,15.828,26.831c-4.675-3.867-10.188-5.894-14.835-5.604
			c-6.674,0.415-11.935,4.841-13.523,8.971c-0.351,3.614,11.603,1.201,12.768-0.883l8.407,5.644
			c-5.506-1.619-17.96,2.671-20.396,13.067c1.845,6.321,12.147-3.929,12.147-3.929S2154.758,573.615,2155.897,579.489z"/>
		<path style="fill:#267FBF;" d="M2221.823,710.602c-25.11-33.264-55.99-75.107-67.87-100.578
			c-1.344-11.494,23.574-33.942,35.894-24.383c0,0,147,126.565,118.564,172.303c-24.087,21.066-56.156,11.028-86.727-47.357
			C2221.731,710.592,2221.777,710.597,2221.823,710.602z"/>
	</g>
	<g id="female_01_1_">
		<path style="fill:#FFA88F;" d="M1319.441,801.586c0,0-97.314,112.4-67.385,129.723c29.929,17.323,126.245-93.241,129.651-123.868
			C1385.112,776.815,1345.153,745.133,1319.441,801.586z"/>
		<polygon style="fill:#267FBF;" points="1298.311,820.175 1358.141,863.581 1400.961,799.645 1352.275,750.96 		"/>
		<polygon style="fill:#267FBF;" points="1582.797,833.08 1522.967,876.486 1480.147,812.55 1528.833,763.865 		"/>
		<path style="fill:#FFA88F;" d="M1487.438,824.181c0,0,74.455,135.18,113.475,125.146c33.492-8.612-37.155-156.987-59.472-178.236
			C1519.124,749.842,1458.065,769.543,1487.438,824.181z"/>
		<polygon style="fill:#267FBF;" points="1510.221,869.017 1582.423,825.853 1529.057,745.018 1463.525,764.638 1465.487,804.271 		
			"/>
		<g id="lady_02_1_">
			<path style="fill:#48C6C6;" d="M1422.531,1124.804l141.659,533.728l39.425,1.516l-57.586-544.907
				C1524.214,984.975,1398.12,1041.068,1422.531,1124.804z"/>
			<path style="fill:#48C6C6;" d="M1326.639,1113.716c-0.102,176.986,14.146,526.478,14.146,526.478l45.791-2.554l72.925-519.235
				C1462.896,1045.558,1342.498,1009.663,1326.639,1113.716z"/>
			<g>
				<path style="fill:#0E324D;" d="M1637.016,1721.63c-0.962-8.135-25.7-17.152-25.7-17.152l-10.136-69.792v-1.875l-43.781,0.166
					c-9.343,4.58-9.009,15.733-7.321,27.806l37.043,60.846H1637.016z"/>
				<polygon style="fill:#0E324D;" points="1556.543,1721.63 1578.364,1657.094 1550.017,1660.6 1550.063,1721.63 				"/>
			</g>
			<g>
				<path style="fill:#0E324D;" d="M1402.664,1724.584c10.216-7.619-10.535-17.152-10.535-17.152l-5.553-69.792v-1.875
					l20.496-136.465l-72.784-1.743l6.269,138.208c-6.114,9.028-8.951,18.254-3.66,27.972l23.431,60.846H1402.664z"/>
				<polygon style="fill:#0E324D;" points="1343.361,1724.584 1365.181,1660.048 1336.835,1663.554 1336.881,1724.584 				"/>
			</g>
			<path style="fill:#267FBF;" d="M1510.652,985.304l-130.775-0.779c-3.723-23.408-44.006-125.002-28.174-171.129
				c-1.705-31.539,110.63-50.1,127.511-31.441c16.881,18.659,36.41,43.744,41.71,61.367
				C1526.223,860.946,1510.652,985.304,1510.652,985.304z"/>
			<path style="fill:#FFA88F;" d="M1389.652,786.57c0,0,19.228,31.267,68.069,41.351c20.986-24.162-5.306-56.654-5.306-56.654
				L1389.652,786.57z"/>
			<g>
				<path style="fill:#FFA88F;" d="M1436.092,702.914c2.746,11.101,14.941,62.89,17.461,73.014
					c-9.589,16.533-57.356,28.43-63.901,10.641l-9.775-83.838C1393.31,702.779,1422.921,702.878,1436.092,702.914z"/>
				<path style="opacity:0.6;fill:#0D0D0D;" d="M1436.092,702.914l13.047,52.758c-25.564-4.929-45.815-22.664-58.35-41.125
					c0,0,10.085-7.827,23.194-11.698L1436.092,702.914z"/>
				<g>
					<path style="fill:#FFA88F;" d="M1472.681,612.984c29.077,39.267,23.728,89.092,4.645,104.569
						c-31.076,25.203-92.012,20.924-121.089-18.343c-29.077-39.267-26.581-90.401,5.574-114.212
						C1393.966,561.188,1443.604,573.717,1472.681,612.984z"/>
					<g>
						<path style="fill:#94503C;" d="M1454.31,665.064c-0.371,0-0.692-0.278-0.735-0.655c-0.047-0.406,0.244-0.775,0.651-0.822
							c3.04-0.353,5.29-1.353,6.336-2.815c0.568-0.793,0.752-1.674,0.548-2.618c-0.298-1.379-2.523-2.004-5.339-2.795
							c-2.931-0.823-6.578-1.847-9.725-4.228l-4.766-3.957c-0.315-0.261-0.358-0.728-0.096-1.043
							c0.261-0.315,0.729-0.357,1.043-0.096l4.74,3.936c2.897,2.191,6.395,3.173,9.205,3.962c3.297,0.926,5.9,1.657,6.387,3.908
							c0.292,1.35,0.019,2.662-0.791,3.794c-1.311,1.832-3.859,3.016-7.37,3.424C1454.367,665.062,1454.339,665.064,1454.31,665.064
							z"/>
						<path style="fill:#6E3B2D;" d="M1418.444,648.05c1.548,2.627,1.166,5.721-0.852,6.91c-2.018,1.189-4.909,0.023-6.456-2.604
							c-1.548-2.627-1.166-5.721,0.852-6.91C1414.006,644.257,1416.896,645.423,1418.444,648.05z"/>
						<path style="fill:#6E3B2D;" d="M1463.326,622.484c1.684,2.424,1.49,5.473-0.434,6.809c-1.924,1.336-4.848,0.454-6.532-1.971
							s-1.49-5.473,0.434-6.809C1458.717,619.177,1461.642,620.059,1463.326,622.484z"/>
						<path style="fill:#94503C;" d="M1448.155,621.196c-0.398,0-0.727-0.316-0.739-0.717c-0.128-3.916,1.891-7.541,5.143-9.235
							c2.584-1.345,5.37-1.142,7.641,0.561c0.327,0.245,0.394,0.709,0.148,1.037c-0.243,0.327-0.708,0.396-1.037,0.148
							c-1.795-1.346-4.008-1.505-6.067-0.432c-2.708,1.41-4.454,4.573-4.347,7.872c0.014,0.41-0.307,0.752-0.716,0.765
							C1448.171,621.196,1448.163,621.196,1448.155,621.196z"/>
						<path style="fill:#94503C;" d="M1403.502,647.684c-0.398,0-0.727-0.316-0.739-0.717c-0.128-3.916,1.892-7.541,5.144-9.235
							c2.586-1.345,5.37-1.141,7.641,0.562c0.327,0.245,0.394,0.709,0.148,1.037c-0.244,0.327-0.708,0.396-1.037,0.148
							c-1.796-1.346-4.009-1.504-6.067-0.432c-2.708,1.41-4.455,4.573-4.348,7.872c0.013,0.41-0.307,0.752-0.716,0.765
							C1403.519,647.684,1403.511,647.684,1403.502,647.684z"/>
					</g>
					<path style="fill:#0E0E0E;" d="M1420.551,572.76c0,0-50.271,89.103-32.101,165.652
						c-66.867-29.542-90.554-71.141-72.944-120.134C1331.266,574.432,1381.452,557.001,1420.551,572.76z"/>
					<path style="fill:#0E0E0E;" d="M1415.058,583.494c0,0,29.565,0.806,56.404,27.899c-19.139-33.391-80.508-82.139-138.713-20.612
						S1415.058,583.494,1415.058,583.494z"/>
					
						<ellipse transform="matrix(0.5459 -0.8379 0.8379 0.5459 46.9847 1471.9425)" style="fill:#FFA88F;" cx="1381.373" cy="692.627" rx="17.114" ry="17.114"/>
					<path style="fill:#FFFFFF;" d="M1400.879,755.344c-0.287,0-0.574-0.004-0.863-0.013c-7.753-0.225-14.954-3.455-20.277-9.096
						c-9.414-9.977-10.541-25.358-2.68-36.573l1.66,1.163c-7.311,10.432-6.262,24.738,2.495,34.019
						c4.951,5.247,11.65,8.252,18.861,8.461c7.215,0.201,14.073-2.404,19.32-7.355c10.831-10.221,11.327-27.349,1.106-38.18
						c-7.714-8.174-19.847-10.72-30.192-6.334l-0.792-1.867c11.122-4.717,24.166-1.98,32.459,6.809
						c10.988,11.645,10.454,30.059-1.189,41.048C1415.356,752.55,1408.316,755.344,1400.879,755.344z"/>
					<path style="fill:#94503C;" d="M1450.698,698.164c-3.405,0-5.481-1.039-5.703-1.157c-0.363-0.19-0.501-0.639-0.311-1
						c0.191-0.363,0.639-0.503,0.999-0.311c0.176,0.088,14.13,6.872,31.034-18.385c0.228-0.34,0.687-0.433,1.028-0.204
						c0.34,0.227,0.431,0.688,0.204,1.028C1466.672,694.984,1456.652,698.164,1450.698,698.164z"/>
				</g>
			</g>
			<path style="fill:#48C6C6;" d="M1379.877,984.525c0,0-56.186,57.663-53.238,129.191c65.015,17.565,218.418-3.891,218.418-3.891
				c-4.528-47.435-7.018-76.947-34.405-124.521C1416.21,985.304,1379.877,984.525,1379.877,984.525z"/>
		</g>
		<g>
			<path style="fill:#FFA88F;" d="M1261.591,716.768c0,0-0.662-21.283,4.16-23.776c4.822-2.493,7.147,17.459,3.488,23.112
				C1265.58,721.757,1261.548,720.551,1261.591,716.768z"/>
			<path style="fill:#FFA88F;" d="M1604.81,733.771c0,0-7.866-19.787-4.18-23.772c3.686-3.986,12.663,13.985,11.146,20.545
				C1610.26,737.104,1606.058,737.342,1604.81,733.771z"/>
			
				<rect x="1272.949" y="490.571" transform="matrix(0.9976 0.069 -0.069 0.9976 48.8447 -97.8324)" style="fill:#FFFFFF;" width="334.964" height="334.964"/>
			<g>
				<path style="fill:#444444;" d="M1377.321,634.156l-8.087,99.126c-0.9,11.035,133.868,22.029,134.768,10.994l8.087-99.126
					L1377.321,634.156z M1447.228,692.848l-2.292,28.095c-0.305,3.742-3.603,6.602-7.345,6.296c-3.804-0.31-6.595-3.666-6.29-7.409
					l2.297-28.158c-5.56-3.071-9.142-9.237-8.594-15.959c0.75-9.197,8.839-16.006,18.034-15.255
					c9.196,0.75,16.012,8.775,15.261,17.972C1457.747,685.214,1453.274,690.724,1447.228,692.848z"/>
				<path style="fill:#444444;" d="M1500.869,637.122l-13.642-1.113l0.544-6.674c1.887-23.128-15.394-43.478-38.517-45.365
					c-23.128-1.887-43.478,15.394-45.365,38.522l-0.545,6.674l-13.642-1.113l0.544-6.674c2.5-30.65,29.47-53.551,60.12-51.051
					c30.646,2.5,53.547,29.469,51.047,60.12L1500.869,637.122z"/>
			</g>
		</g>
		<path style="fill:#FFA88F;" d="M1237.08,910.542c-2.913-40.244,6.187-71.189,19.823-153.97l23.569,2.487
			c0,0,18.839,101.765,3.342,135.858C1273.868,916.797,1250.778,958.953,1237.08,910.542z"/>
		<path style="fill:#FFA88F;" d="M1619.016,930.608c9.309-39.26,7.624-66.606,7.398-150.503l-22.137-1.599
			c4.057,52.74-31.441,90.266-24.986,136.956C1582.583,939.27,1597.755,976.206,1619.016,930.608z"/>
		<polygon style="fill:#0E324D;" points="1557.918,1638.203 1519.046,1497.227 1588.497,1497.227 1601.973,1637.685 		"/>
		<path style="fill:#FFA88F;" d="M1260.089,769.621c0,0-13.166-36.508-13.886-45.464c0.911-12.336,9.62-20.457,9.62-20.457
			s11.682,3.384,23.156,8.679c-0.692,2.961-14.199,0.103-14.199,0.103s10.457,8.843,17.165,13.827
			c-0.86,3.872-17.662-4.13-17.662-4.13s12.916,9.946,18.092,14.567c-4.305,4.681-15.066-4.075-15.066-4.075
			s17.964,19.778,14.043,26.48C1277.43,765.854,1268.705,774.045,1260.089,769.621z"/>
		<path style="fill:#FFA88F;" d="M1626.414,780.105c0,0-3.806-38.622-7.006-47.018c-6.125-10.746-17.479-14.335-17.479-14.335
			s-9.093,8.077-17.176,17.79c1.898,2.376,12.865-6.011,12.865-6.011s-5.64,12.48-9.554,19.862
			c2.441,3.126,14.172-11.321,14.172-11.321s-7.386,14.532-10.073,20.93c5.9,2.376,11.852-10.155,11.852-10.155
			s-7.717,25.579-1.296,29.946C1609.137,784.158,1620.536,787.804,1626.414,780.105z"/>
	</g>
	<g id="male_01_1_">
		<g>
			<polygon style="fill:#FFA88F;" points="983.713,1630.56 982.046,1692.052 931.447,1692.052 927.937,1630.912 			"/>
			<polygon style="fill:#FFA88F;" points="762.805,1629.079 751.38,1690.591 695.669,1690.591 703.816,1629.451 			"/>
			<g>
				<g>
					<path style="fill:#267FBF;" d="M978.032,1081.385c10.387,66.001,18.076,331.851,5.68,541.619l-59.404,0.373l-74.171-541.992
						H978.032z"/>
					<polygon style="fill:#267FBF;" points="702.366,1632.491 753.351,1083.777 886.959,1083.777 767.01,1632.491 					"/>
				</g>
				<path style="fill:#185078;" d="M904.299,1186.882c0,0-33.375,7.101-75.271-4.971
					C869.519,1209.072,904.299,1186.882,904.299,1186.882z"/>
				<path style="fill:#5DADE8;" d="M942.281,1173.61c6.139,19.246,18.822,33.916,35.751,44.463v4.875
					c-35.05-13.464-44.887-44.687-44.887-44.687L942.281,1173.61z"/>
				<path style="fill:#5DADE8;" d="M778.711,1162.388l9.137,4.651c0,0-12.656,32.276-47.707,45.74l1.3-5.279
					C758.37,1196.955,772.572,1181.634,778.711,1162.388z"/>
			</g>
			<g>
				<path style="fill:#195580;" d="M988.917,1658.296c4.812,10.889,17.092,15.053,41.548,19.238
					c26.35-1.994,38.77,26.945,25.6,39.052c-63.756,0-130.207,0-130.207,0c-2.02-8.837-0.196-34.342,1.176-46.921
					c11.354,7.472,23.281,6.072,35.612,1.37C953.56,1648.792,987.019,1645.148,988.917,1658.296z"/>
				<path style="fill:#FFFFFF;" d="M1030.466,1677.534c0,0-22.067,1.509-23.578,26.073c-13.724,0-85.029,0-85.029,0v14.738h139.509
					c0,0,3.339-13.227-1.952-27.587C1054.126,1676.398,1032.338,1677.263,1030.466,1677.534z"/>
				<g>
					<path style="fill:#F2F2F2;" d="M979.226,1673.457L979.226,1673.457c0.432,0.942,1.556,1.358,2.498,0.926l19.135-8.78
						c0.942-0.432,1.359-1.556,0.926-2.498l0,0c-0.432-0.942-1.556-1.359-2.498-0.927l-19.135,8.78
						C979.211,1671.391,978.794,1672.516,979.226,1673.457z"/>
					<path style="fill:#F2F2F2;" d="M986.76,1678.554L986.76,1678.554c0.432,0.942,1.556,1.359,2.498,0.927l19.135-8.78
						c0.942-0.432,1.359-1.556,0.927-2.498l0,0c-0.432-0.942-1.556-1.359-2.498-0.927l-19.135,8.78
						C986.745,1676.489,986.328,1677.613,986.76,1678.554z"/>
					<path style="fill:#F2F2F2;" d="M995.847,1682.285L995.847,1682.285c0.432,0.942,1.556,1.359,2.498,0.927l19.135-8.78
						c0.942-0.432,1.358-1.556,0.926-2.498l0,0c-0.432-0.942-1.556-1.359-2.498-0.927l-19.135,8.78
						C995.831,1680.22,995.414,1681.344,995.847,1682.285z"/>
				</g>
			</g>
			<g>
				<path style="fill:#195580;" d="M668.494,1674.876c15.024-3.509,21.259-9.289,25.006-17.768
					c1.899-13.148,41.32-7.522,32.232,14.72c12.331,4.702,18.296,4.12,29.65-3.351c1.372,12.579,3.197,38.084,1.176,46.921
					c0,0-41.367,0-90.135,0L668.494,1674.876z"/>
				<path style="fill:#FFFFFF;" d="M679.808,1675.923c0,0,26.157,1.934,27.669,26.497c13.724,0,53.081,0,53.081,0v14.738H641.273
					C633.655,1692.518,660.974,1668.49,679.808,1675.923z"/>
				<g>
					<path style="fill:#F2F2F2;" d="M699.399,1676.415L699.399,1676.415c-0.22,1.012-1.228,1.661-2.241,1.441
						c-5.433-4.288-12.456-5.454-20.573-4.468c-1.012-0.22-1.661-1.228-1.441-2.24l0,0c0.22-1.012,1.228-1.661,2.241-1.441
						c7.394-0.48,14.357,0.625,20.573,4.468C698.97,1674.394,699.619,1675.403,699.399,1676.415z"/>
				</g>
				<g>
					<path style="fill:#F2F2F2;" d="M707.519,1671.522L707.519,1671.522c-0.22,1.012-1.228,1.661-2.241,1.441
						c-5.433-4.288-12.456-5.454-20.573-4.468c-1.013-0.22-1.661-1.228-1.441-2.241l0,0c0.22-1.012,1.228-1.661,2.241-1.441
						c7.394-0.48,14.357,0.625,20.573,4.468C707.09,1669.501,707.739,1670.51,707.519,1671.522z"/>
				</g>
				<g>
					<path style="fill:#F2F2F2;" d="M714.494,1666.659L714.494,1666.659c-0.22,1.013-1.228,1.661-2.241,1.441
						c-5.433-4.288-12.456-5.454-20.573-4.468c-1.013-0.22-1.661-1.228-1.441-2.241l0,0c0.22-1.012,1.228-1.661,2.24-1.441
						c7.394-0.48,14.358,0.625,20.573,4.468C714.065,1664.639,714.714,1665.647,714.494,1666.659z"/>
				</g>
			</g>
			<path style="fill:#5DADE8;" d="M988.018,1619.709c0.019-0.304-68.67,0-68.67,0v14.743l68.67,1.47V1619.709z"/>
			<path style="fill:#5DADE8;" d="M771.542,1627.883c0.02-0.304-72.101,0-72.101,0l-1.535,15.478l72.101,1.47L771.542,1627.883z"/>
		</g>
		<g>
			<path style="fill:#FFA88F;" d="M1059.744,953.576c-56.72-2.436-109.111-44.125-154.813-69.531l29.164-85.116
				c47.139,27.938,104.497,66.289,128.305,83.77C1109.288,915.726,1089.864,959.429,1059.744,953.576z"/>
			<path style="fill:#338C8C;" d="M925.488,792.631c37.301,10.838,74.752,33.901,106.032,56.068
				c-46.654,38.502-27.466,89.721-24.048,101.99l-85.514-46.044C886.129,878.775,856.48,789.464,925.488,792.631z"/>
			<path style="fill:#FFFFFF;" d="M993.604,943.234c0,0-12.568-27.026,3.65-62.471c11.315-24.73,26.106-35.002,30.577-34.12
				c4.472,0.882,17.866,5.868,12.27,19.196c0,0-17.622,9.914-27.411,37.218c-12.656,35.299,2.538,41.593,2.538,41.593
				S1003.806,958.992,993.604,943.234z"/>
		</g>
		<g>
			<path style="fill:#FFA88F;" d="M655.297,953.642c56.579-4.683,107.277-48.416,151.936-75.613l-32.515-83.893
				c-45.994,29.784-101.787,70.379-124.883,88.79C604.292,917.786,625.433,960.685,655.297,953.642z"/>
			<path style="fill:#338C8C;" d="M783.068,787.502c-36.842,12.308-73.349,36.837-103.726,60.227
				c48.144,36.622,31.001,88.562,28.072,100.957l83.621-49.397C825.811,872.018,851.896,781.602,783.068,787.502z"/>
			<path style="fill:#FFFFFF;" d="M720.975,940.686c0,0,11.487-27.503-6.123-62.277c-12.286-24.262-27.473-33.939-31.906-32.881
				c-4.433,1.059-17.619,6.572-11.5,19.667c0,0,18.001,9.208,28.865,36.102c14.045,34.769-0.887,41.661-0.887,41.661
				S711.406,956.836,720.975,940.686z"/>
		</g>
		<path style="fill:#338C8C;" d="M985.269,1132.55c-35.95,24.38-192.11,29.86-247.5,4.7c0.54-6.82,1.07-13.48,1.59-20
			c9.79-121.72,17.21-193.12,31.54-308.68c64.11-34.95,146.12-28.95,173.2-5.75l38.91,311.63L985.269,1132.55z"/>
		<polygon style="fill:#48C6C6;" points="872.956,883.067 875.553,942.213 931.187,939.951 927.261,880.306 		"/>
		<path style="fill:#FFFFFF;" d="M893.831,787.285c12.29,2.386,29.077,13.334,13.793,38.161
			c-15.284,24.827-103.682,22.147-107.457-7.146S881.541,784.899,893.831,787.285z"/>
		<g>
			<path style="fill:#FFA88F;" d="M895.874,802.045l-2.273-9.719l-8.19-34.81l-10.792-46.011l-58.078,1.565l-1.969,96.764
				C821.309,844.909,909.398,830.741,895.874,802.045z"/>
			<path style="opacity:0.5;fill:#0D0D0D;" d="M832.347,748.795c0,0,39.651,36.51,61.254,43.531l-8.19-34.81L832.347,748.795z"/>
		</g>
		<g>
			<g>
				<path style="fill:#FFA88F;" d="M910.947,654.103c20.876,29.774,28.069,78.971-6.68,103.653s-87.155,7.955-115.935-32.564
					c-28.78-40.519-23.941-93.375,10.808-118.057C833.889,582.453,891.022,601.733,910.947,654.103z"/>
				<path style="fill:#733602;" d="M882.672,697.273c-0.229,0-0.452-0.117-0.577-0.329c-0.189-0.318-0.084-0.73,0.234-0.919
					c0.072-0.043,7.217-4.367,6.487-10.106c-0.438-3.438-4.132-3.29-8.552-2.771c-1.787,0.209-3.078,0.36-3.843-0.003l-0.15-0.071
					l-5.406-7.244c-0.221-0.297-0.161-0.718,0.136-0.939c0.297-0.221,0.717-0.159,0.939,0.137l5.187,6.949
					c0.53,0.124,1.826-0.026,2.981-0.161c3.742-0.441,9.397-1.102,10.039,3.935c0.843,6.616-6.806,11.236-7.132,11.43
					C882.906,697.242,882.788,697.273,882.672,697.273z"/>
				<path style="fill:#522601;" d="M884.623,662.081c-3.048-4.401-3.426-9.051-0.879-10.815c2.547-1.762,6.766,0.225,9.816,4.628
					l-1.887,1.306c-2.313-3.338-5.404-4.89-6.622-4.047c-1.219,0.844-0.854,4.283,1.459,7.622L884.623,662.081z"/>
				<path style="fill:#522601;" d="M828.12,693.13c-3.048-4.401-3.426-9.051-0.879-10.815c2.549-1.762,6.767,0.227,9.815,4.628
					l-1.887,1.306c-2.312-3.339-5.403-4.891-6.622-4.047c-1.219,0.843-0.854,4.283,1.459,7.622L828.12,693.13z"/>
				<path style="fill:#733602;" d="M862.404,731.094c-6.783,0-14.246-1.62-22.212-5.824c-0.328-0.173-0.453-0.579-0.28-0.906
					c0.173-0.328,0.579-0.453,0.906-0.28c33.745,17.807,58.31-12.058,58.554-12.362c0.232-0.288,0.654-0.336,0.943-0.102
					c0.289,0.233,0.334,0.655,0.102,0.943C900.225,712.804,885.177,731.094,862.404,731.094z"/>
			</g>
			<path style="fill:#0D0D0D;" d="M906.917,644.933c0,0-8.529-32.085-50.837-27.166c6.215,9.29,20.567,15.202,36,20.667
				c0,0-36.491,11.33-64.076-1.609c3.944,10.91,19.408,18.538,19.408,18.538s-26.061,12.063-42.142,1.575
				c4.83,22.99-9.621,56.382,3.887,90.424c-44.633-24.704-63.057-33.046-73.308-64.391c-14.7-44.946,29.928-91.914,72.823-106.097
				C886.065,548.36,921.78,593.927,906.917,644.933z"/>
			
				<ellipse transform="matrix(0.1826 -0.9832 0.9832 0.1826 -45.4146 1365.9408)" style="fill:#FFA88F;" cx="798.762" cy="710.282" rx="14.7" ry="14.7"/>
			<path style="fill:#FF9475;" d="M888.247,678.153c1.223,3.383,8.115,3.993,15.393,1.362c7.279-2.631,12.188-7.506,10.965-10.889
				c-1.223-3.383-8.115-3.993-15.393-1.362C891.933,669.895,887.024,674.77,888.247,678.153z"/>
			<path style="fill:#FF9475;" d="M824.249,709.775c1.223,3.383,8.389,3.894,16.006,1.141c7.617-2.753,12.801-7.728,11.578-11.111
				c-1.223-3.383-8.389-3.894-16.006-1.141C828.209,701.417,823.026,706.392,824.249,709.775z"/>
		</g>
		<g>
			<path style="opacity:0.2;" d="M694.158,891.167c0,0,8.24-29.821,35.315-38.061c27.074-8.24,38.061,9.81,38.061,9.81
				s33.353-18.834,87.894-14.518c54.541,4.316,83.97,10.987,95.349,25.112c11.771-24.72,67.49-30.606,67.49-30.606v-21.581
				l-324.109,5.493V891.167z"/>
			<rect x="688.753" y="514.875" style="fill:#FFFFFF;" width="328.214" height="328.214"/>
			<g>
				<g>
					<path style="fill:#444444;" d="M786.457,658.009l-1.672,100.329c-0.186,11.169,136.848,13.444,137.034,2.275l1.672-100.329
						L786.457,658.009z M861.018,712.54l-0.474,28.436c-0.063,3.788-3.211,6.882-7.016,6.819c-3.868-0.064-6.911-3.261-6.848-7.049
						l0.475-28.5c-5.825-2.729-9.853-8.704-9.74-15.508c0.155-9.308,7.889-16.691,17.24-16.536
						c9.35,0.155,16.771,7.79,16.616,17.098C871.156,704.168,866.994,710.006,861.018,712.54z"/>
					<path style="fill:#444444;" d="M911.615,652.934l-13.871-0.23l0.113-6.755c0.39-23.408-18.424-42.77-41.936-43.161
						c-23.516-0.391-42.966,18.336-43.356,41.744l-0.112,6.756l-13.872-0.23l0.113-6.756c0.517-31.022,26.292-55.839,57.458-55.322
						c31.161,0.517,56.095,26.176,55.578,57.199L911.615,652.934z"/>
				</g>
				<g>
					<path style="fill:#444444;" d="M789.553,659.888l-1.202,97.444c-0.134,10.848,132.347,12.482,132.481,1.634l1.202-97.444
						L789.553,659.888z M861.857,712.534l-0.341,27.618c-0.045,3.679-3.076,6.697-6.754,6.651c-3.74-0.046-6.694-3.138-6.649-6.817
						l0.342-27.68c-5.643-2.626-9.561-8.412-9.48-15.02c0.111-9.04,7.558-16.243,16.597-16.132
						c9.04,0.112,16.245,7.495,16.133,16.536C871.623,704.361,867.623,710.048,861.857,712.534z"/>
					<path style="fill:#444444;" d="M910.523,654.434l-13.411-0.165l0.081-6.561c0.28-22.735-17.988-41.46-40.718-41.74
						c-22.735-0.281-41.46,17.988-41.74,40.723l-0.081,6.561l-13.411-0.166l0.081-6.561c0.372-30.13,25.186-54.34,55.316-53.968
						c30.126,0.372,54.335,25.186,53.964,55.316L910.523,654.434z"/>
				</g>
			</g>
		</g>
		<g>
			<path style="fill:#FFA88F;" d="M1020.291,903.411c-3.756-17.389-12.38-153.578-12.38-153.578l22.695-16.312
				c0,0,73.067,147.673,59.141,192.736C1077.771,965.01,1026.126,930.426,1020.291,903.411z"/>
			<path style="fill:#FFA88F;" d="M1005.127,721.124c1.934,9.284-8.704,10.943-2.361,27.599
				c5.853,15.367,28.085,2.735,28.567-10.601c0,0,3.569-22.007,3.425-36.18c-0.154-14.174-18.408-46.383-19.539-45.12
				c-6.427,2.185,3.471,31.88,3.471,31.88s-14.783-15.554-21.982-18.639c-7.456,3.728,16.197,26.609,16.197,26.609
				c-4.727-3.802-10.268-5.753-14.911-5.399c-6.667,0.508-11.867,5.006-13.397,9.157c-0.302,3.618,11.619,1.04,12.755-1.059
				l8.484,5.528c-5.527-1.543-17.922,2.919-20.214,13.348c1.932,6.295,12.091-4.097,12.091-4.097S1003.907,715.266,1005.127,721.124
				z"/>
		</g>
		<g>
			<path style="fill:#FFA88F;" d="M693.116,906.347c3.427-17.457,16.304-150.587,16.304-150.587l-24.363-10.199
				c0,0-75.727,140.146-60.954,184.938C636.807,969.018,687.791,933.467,693.116,906.347z"/>
			<path style="fill:#FFA88F;" d="M706.7,731.1c-1.347,9.387,9.375,10.375,4.09,27.397c-4.876,15.705-27.857,4.494-29.177-8.786
				c0,0-4.944-21.74-5.691-35.894c-0.737-14.156,15.458-47.447,16.667-46.258c6.552,1.777-1.462,32.035-1.462,32.035
				s13.777-16.452,20.768-19.983c7.675,3.252-14.494,27.574-14.494,27.574c4.479-4.091,9.887-6.386,14.543-6.325
				c6.686,0.088,12.158,4.251,13.946,8.298c0.528,3.592-11.53,1.768-12.796-0.256l-8.12,6.049c5.42-1.887,18.07,1.787,21.012,12.052
				c-1.533,6.404-12.325-3.329-12.325-3.329S707.55,725.177,706.7,731.1z"/>
		</g>
		<path style="fill:#FFFFFF;" d="M985.269,1132.55c-35.95,24.38-192.11,29.86-247.5,4.7c0.54-6.82,1.07-13.48,1.59-20
			c21.32,7.28,77.89,24.78,122.61,22.19c44.64-2.59,100.06-18.52,121.04-24.99L985.269,1132.55z"/>
	</g>
</g>
</svg>
